# Blender 3.3.1
# www.blender.org
mtllib StandardHouse1.mtl
o Cube.003
v 5.000000 0.500001 -5.000000
v 4.641468 3.762981 4.373524
v 5.000000 -0.499999 -5.000000
v 4.641468 3.876078 4.373524
v 5.000000 0.499999 5.000000
v 4.641468 3.762982 -4.373523
v 5.000000 -0.500001 5.000000
v 4.641468 3.876080 -4.373523
v 0.000000 3.762982 -4.373523
v 0.000000 -0.499999 -5.000000
v 0.000000 0.499999 5.000000
v 0.000000 5.762982 -4.373523
v 0.000000 -0.500001 5.000000
v 0.000000 3.762981 4.373524
v 0.000000 5.762981 4.373525
v 0.000000 0.500001 -5.000000
v -4.641468 3.762981 4.373524
v 3.537625 -0.500001 5.000000
v 3.537625 0.500001 -5.000000
v -4.641468 3.876078 4.373524
v 3.537625 -0.499999 -5.000000
v -4.641468 3.762982 -4.373523
v 3.537625 0.499999 5.000000
v -4.641468 3.876080 -4.373523
v 5.000000 0.844656 -5.000000
v 3.537625 0.844656 -5.000000
v 5.000000 0.844654 5.000000
v 3.537625 0.844654 5.000000
v 0.000000 0.844656 -5.000000
v 0.000000 0.844654 5.000000
v 0.000000 -0.500000 -3.551144
v 0.000000 -0.500000 3.551144
v 3.537625 -0.500000 -3.551144
v 3.537625 -0.500000 3.551144
v 5.000000 0.500000 -3.551144
v 5.000000 0.500000 3.551144
v 5.000000 -0.500000 3.551143
v 5.000000 -0.500000 -3.551145
v 3.537625 0.844655 -3.551144
v 3.537625 0.844654 3.551144
v 5.000000 0.844655 -3.551144
v 5.000000 0.844654 3.551144
v 0.000000 0.844655 -3.551144
v 0.000000 0.844654 3.551144
v 3.537625 3.079468 -3.551144
v 3.537625 3.079468 3.551144
v 0.000000 3.079468 -3.551144
v 0.000000 3.079468 3.551144
v 0.819582 -0.499999 -5.000000
v 0.819582 -0.500001 5.000000
v 0.819582 0.499999 5.000000
v 0.819582 0.500001 -5.000000
v 0.819582 0.844654 5.000000
v 0.819582 0.844656 -5.000000
v 0.819582 0.844654 3.551144
v 0.651469 0.931684 -3.464115
v 0.819582 -0.500000 3.551144
v 0.819582 -0.500000 -3.551144
v 0.819582 3.079468 3.551145
v 0.819582 3.079468 -3.551144
v 0.000000 2.723441 -3.551144
v 3.537625 2.723441 -3.551144
v 0.000000 2.723440 3.551144
v 3.537625 2.723440 3.551144
v 0.819582 2.723440 3.551145
v 0.819582 2.723441 -3.551144
v 0.000000 -0.500000 -0.661995
v 0.000000 -0.500000 0.661839
v 3.537625 -0.500000 -0.661995
v 3.537625 -0.500000 0.661839
v 5.000000 0.500000 -0.661994
v 5.000000 0.500000 0.661839
v 5.000000 -0.500000 0.661839
v 5.000000 -0.500000 -0.661995
v 3.537625 0.844655 -0.661994
v 3.537625 0.844655 0.661839
v 5.000000 0.844655 -0.661994
v 5.000000 0.844655 0.661839
v 3.537625 3.079468 -0.661994
v 3.537625 3.079468 0.661839
v 0.819582 -0.500000 -0.661995
v 0.819582 -0.500000 0.661839
v 3.537625 2.723441 -0.661994
v 3.537625 2.723441 0.661839
v 0.651469 0.844654 0.667365
v 0.651469 0.844654 -0.663327
v 0.000000 0.844654 -0.663327
v 0.000000 0.844654 0.667365
v 3.537625 3.762981 3.551145
v 0.819582 3.762981 3.551145
v 3.537625 3.762982 -3.551144
v 3.537625 3.762981 -0.661994
v 0.000000 3.762982 -3.551144
v 0.819582 3.762982 -3.551144
v 0.000000 3.762981 3.551145
v 3.537625 3.762981 0.661839
v -5.000000 0.500001 -5.000000
v -4.641468 3.762981 4.373524
v -5.000000 -0.499999 -5.000000
v -4.641468 3.876078 4.373524
v -5.000000 0.499999 5.000000
v -4.641468 3.762982 -4.373523
v -5.000000 -0.500001 5.000000
v -4.641468 3.876080 -4.373523
v 4.641468 3.762981 4.373524
v -3.537625 -0.500001 5.000000
v -3.537625 0.500001 -5.000000
v 4.641468 3.876078 4.373524
v -3.537625 -0.499999 -5.000000
v 4.641468 3.762982 -4.373523
v -3.537625 0.499999 5.000000
v 4.641468 3.876080 -4.373523
v -5.000000 0.844656 -5.000000
v -3.537625 0.844656 -5.000000
v -5.000000 0.844654 5.000000
v -3.537625 0.844654 5.000000
v -3.537625 -0.500000 -3.551144
v -3.537625 -0.500000 3.551144
v -5.000000 0.500000 -3.551144
v -5.000000 0.500000 3.551144
v -5.000000 -0.500000 3.551143
v -5.000000 -0.500000 -3.551145
v -3.537625 0.844655 -3.551144
v -3.537625 0.844654 3.551144
v -5.000000 0.844655 -3.551144
v -5.000000 0.844654 3.551144
v -3.537625 3.079468 -3.551144
v -3.537625 3.079468 3.551144
v -0.819582 -0.499999 -5.000000
v -0.819582 -0.500001 5.000000
v -0.819582 0.499999 5.000000
v -0.819582 0.500001 -5.000000
v -0.819582 0.844654 5.000000
v -0.819582 0.844656 -5.000000
v -0.819582 0.844654 3.551144
v -0.651469 0.931684 -3.464115
v -0.819582 -0.500000 3.551144
v -0.819582 -0.500000 -3.551144
v -0.819582 3.079468 3.551145
v -0.819582 3.079468 -3.551144
v -3.537625 2.723441 -3.551144
v -3.537625 2.723440 3.551144
v -0.819582 2.723440 3.551145
v -0.819582 2.723441 -3.551144
v -3.537625 -0.500000 -0.661995
v -3.537625 -0.500000 0.661839
v -5.000000 0.500000 -0.661994
v -5.000000 0.500000 0.661839
v -5.000000 -0.500000 0.661839
v -5.000000 -0.500000 -0.661995
v -3.537625 0.844655 -0.661994
v -3.537625 0.844655 0.661839
v -5.000000 0.844655 -0.661994
v -5.000000 0.844655 0.661839
v -3.537625 3.079468 -0.661994
v -3.537625 3.079468 0.661839
v -0.819582 -0.500000 -0.661995
v -0.819582 -0.500000 0.661839
v -3.537625 2.723441 -0.661994
v -3.537625 2.723441 0.661839
v -0.651469 0.844654 0.667365
v -0.651469 0.844654 -0.663327
v -3.537625 3.762981 3.551145
v -0.819582 3.762981 3.551145
v -3.537625 3.762982 -3.551144
v -3.537625 3.762981 -0.661994
v -0.819582 3.762982 -3.551144
v -3.537625 3.762981 0.661839
vn -0.0000 -0.0000 1.0000
vn -0.0000 -0.0000 -1.0000
vn 1.0000 -0.0000 -0.0000
vn -0.0000 -1.0000 -0.0000
vn -0.0000 1.0000 -0.0000
vn -0.0571 0.9978 -0.0323
vn 0.0151 0.9995 -0.0283
vn -0.0159 -0.0230 -0.9996
vn 0.0606 -0.0264 -0.9978
vn -0.0677 0.9976 0.0153
vn -0.0000 -0.7071 -0.7071
vn -0.0000 0.7755 -0.6314
vn 0.6635 0.4465 -0.6004
vn 0.5774 -0.5774 -0.5774
vn 0.6635 0.4465 0.6004
vn 0.5774 -0.5774 0.5774
vn -0.0000 -0.9701 -0.2425
vn -0.0000 -0.7071 0.7071
vn -0.0000 -0.9701 0.2425
vn -0.0000 -0.8944 0.4473
vn 0.4082 -0.8165 0.4082
vn 0.4472 -0.8944 -0.0000
vn 0.4082 -0.8165 -0.4082
vn -0.0000 -0.8944 -0.4473
vn -0.0000 0.7755 0.6314
vn -0.5774 -0.5774 -0.5774
vn -0.6635 0.4465 -0.6004
vn -0.5774 -0.5774 0.5774
vn -0.6635 0.4465 0.6004
vn 0.0153 0.9998 0.0153
vn -1.0000 -0.0000 -0.0000
vn 0.0571 0.9978 -0.0323
vn -0.0151 0.9995 -0.0283
vn 0.0159 -0.0230 -0.9996
vn -0.0606 -0.0264 -0.9978
vn 0.0677 0.9976 0.0153
vn -0.4082 -0.8165 -0.4082
vn -0.4472 -0.8944 -0.0000
vn -0.4082 -0.8165 0.4082
vn -0.0153 0.9998 0.0153
vt 0.000000 0.000000
vt 0.375000 0.500000
vt 0.375000 0.750000
vt 0.000000 0.000000
vt 0.625000 0.750000
vt 0.375000 0.750000
vt 0.000000 0.000000
vt 0.375000 0.500000
vt 0.000000 0.000000
vt 0.375000 0.500000
vt 0.625000 0.500000
vt 0.375000 0.375000
vt 0.250000 0.750000
vt 0.625000 0.375000
vt 0.250000 0.500000
vt 0.000000 0.000000
vt 0.000000 0.000000
vt 0.375000 0.375000
vt 0.625000 0.375000
vt 0.750000 0.500000
vt 0.000000 0.000000
vt 0.250000 0.750000
vt 0.250000 0.500000
vt 0.375000 0.875000
vt 0.750000 0.750000
vt 0.375000 0.875000
vt 0.000000 0.000000
vt 0.375000 0.750000
vt 0.375000 0.500000
vt 0.625000 0.750000
vt 0.000000 0.000000
vt 0.000000 0.000000
vt 0.625000 0.750000
vt 0.000000 0.000000
vt 0.375000 0.500000
vt 0.000000 0.000000
vt 0.375000 0.500000
vt 0.625000 0.500000
vt 0.000000 0.000000
vt 0.000000 0.000000
vt 0.000000 0.000000
vt 0.000000 0.000000
vt 0.000000 0.000000
vt 0.000000 0.000000
vt 0.000000 0.000000
vt 0.000000 0.000000
vt 0.000000 0.000000
vt 0.000000 0.000000
vt 0.000000 0.000000
vt 0.000000 0.000000
vt 0.000000 0.000000
vt 0.000000 0.000000
vt 0.000000 0.000000
vt 0.000000 0.000000
vt 0.000000 0.000000
vt 0.000000 0.000000
vt 0.000000 0.000000
vt 0.000000 0.000000
vt 0.000000 0.000000
vt 0.000000 0.000000
vt 0.000000 0.000000
vt 0.000000 0.000000
vt 0.000000 0.000000
vt 0.000000 0.000000
vt 0.000000 0.000000
vt 0.000000 0.000000
vt 0.000000 0.000000
vt 0.000000 0.000000
vt 0.000000 0.000000
vt 0.000000 0.000000
vt 0.000000 0.000000
vt 0.000000 0.000000
vt 0.000000 0.000000
vt 0.000000 0.000000
vt 0.000000 0.000000
vt 0.000000 0.000000
vt 0.000000 0.000000
vt 0.000000 0.000000
vt 0.000000 0.000000
vt 0.000000 0.000000
vt 0.000000 0.000000
vt 0.000000 0.000000
vt 0.000000 0.000000
vt 0.000000 0.000000
vt 0.000000 0.000000
vt 0.000000 0.000000
vt 0.000000 0.000000
vt 0.000000 0.000000
vt 0.000000 0.000000
vt 0.000000 0.000000
vt 0.000000 0.000000
vt 0.000000 0.000000
vt 0.000000 0.000000
vt 0.000000 0.000000
vt 0.000000 0.000000
vt 0.000000 0.000000
vt 0.000000 0.000000
vt 0.000000 0.000000
vt 0.000000 0.000000
vt 0.000000 0.000000
vt 0.000000 0.000000
vt 0.000000 0.000000
vt 0.000000 0.000000
vt 0.345272 0.500000
vt 0.000000 0.000000
vt 0.272072 0.500000
vt 0.000000 0.000000
vt 0.345272 0.500000
vt 0.000000 0.000000
vt 0.345272 0.500000
vt 0.000000 0.000000
vt 0.250000 0.750000
vt 0.250000 0.500000
vt 0.000000 0.000000
vt 0.272072 0.500000
vt 0.000000 0.000000
vt 0.250000 0.750000
vt 0.250000 0.500000
vt 0.000000 0.000000
vt 0.345272 0.500000
vt 0.000000 0.000000
vt 0.375000 0.500000
vt 0.375000 0.750000
vt 0.000000 0.000000
vt 0.625000 0.750000
vt 0.375000 0.750000
vt 0.000000 0.000000
vt 0.375000 0.500000
vt 0.000000 0.000000
vt 0.375000 0.500000
vt 0.625000 0.500000
vt 0.375000 0.750000
vt 0.375000 0.500000
vt 0.625000 0.750000
vt 0.000000 0.000000
vt 0.000000 0.000000
vt 0.625000 0.750000
vt 0.000000 0.000000
vt 0.375000 0.500000
vt 0.000000 0.000000
vt 0.375000 0.500000
vt 0.625000 0.500000
vt 0.000000 0.000000
vt 0.000000 0.000000
vt 0.000000 0.000000
vt 0.000000 0.000000
vt 0.000000 0.000000
vt 0.000000 0.000000
vt 0.000000 0.000000
vt 0.000000 0.000000
vt 0.000000 0.000000
vt 0.000000 0.000000
vt 0.000000 0.000000
vt 0.000000 0.000000
vt 0.000000 0.000000
vt 0.000000 0.000000
vt 0.000000 0.000000
vt 0.000000 0.000000
vt 0.000000 0.000000
vt 0.000000 0.000000
vt 0.000000 0.000000
vt 0.000000 0.000000
vt 0.000000 0.000000
vt 0.000000 0.000000
vt 0.000000 0.000000
vt 0.000000 0.000000
vt 0.000000 0.000000
vt 0.000000 0.000000
vt 0.000000 0.000000
vt 0.000000 0.000000
vt 0.000000 0.000000
vt 0.000000 0.000000
vt 0.000000 0.000000
vt 0.000000 0.000000
vt 0.000000 0.000000
vt 0.000000 0.000000
vt 0.000000 0.000000
vt 0.000000 0.000000
vt 0.000000 0.000000
vt 0.000000 0.000000
vt 0.000000 0.000000
vt 0.000000 0.000000
vt 0.000000 0.000000
vt 0.000000 0.000000
vt 0.000000 0.000000
vt 0.000000 0.000000
vt 0.000000 0.000000
vt 0.000000 0.000000
vt 0.000000 0.000000
vt 0.000000 0.000000
vt 0.000000 0.000000
vt 0.000000 0.000000
vt 0.000000 0.000000
vt 0.345272 0.500000
vt 0.000000 0.000000
vt 0.272072 0.500000
vt 0.000000 0.000000
vt 0.345272 0.500000
vt 0.000000 0.000000
vt 0.345272 0.500000
vt 0.000000 0.000000
vt 0.272072 0.500000
vt 0.000000 0.000000
vt 0.345272 0.500000
s 0
usemtl 
f 23/36/1 5/7/1 27/41/1 28/42/1
f 21/34/2 19/32/2 1/1/2 3/4/2
f 50/64/1 51/65/1 11/17/1 13/21/1
f 36/50/3 5/7/3 7/9/3 37/51/3
f 7/9/1 5/7/1 23/36/1 18/31/1
f 49/63/2 52/66/2 19/32/2 21/34/2
f 37/51/4 7/9/4 18/31/4 34/48/4
f 58/72/4 49/63/4 21/34/4 33/47/4
f 40/54/5 28/42/5 27/41/5 42/56/5
f 35/49/3 1/1/3 25/39/3 41/55/3
f 1/1/2 19/32/2 26/40/2 25/39/2
f 56/70/6 54/68/6 29/43/6 43/57/6
f 52/66/2 54/68/2 26/40/2 19/32/2
f 51/65/1 53/67/1 30/44/1 11/17/1
f 53/67/5 55/69/5 44/58/5 30/44/5
f 66/80/2 61/75/2 47/61/2 60/74/2
f 5/7/3 36/50/3 42/56/3 27/41/3
f 71/85/3 35/49/3 41/55/3 77/91/3
f 26/40/5 39/53/5 41/55/5 25/39/5
f 76/90/5 40/54/5 42/56/5 78/92/5
f 50/64/4 57/71/4 34/48/4 18/31/4
f 81/95/4 58/72/4 33/47/4 69/83/4
f 3/4/4 38/52/4 33/47/4 21/34/4
f 73/87/4 37/51/4 34/48/4 70/84/4
f 1/1/3 35/49/3 38/52/3 3/4/3
f 72/86/3 36/50/3 37/51/3 73/87/3
f 90/105/1 59/73/1 46/60/1 89/103/1
f 83/97/3 62/76/3 45/59/3 79/93/3
f 65/79/1 64/78/1 46/60/1 59/73/1
f 79/93/3 45/59/3 91/107/3 92/109/3
f 60/74/2 47/61/2 93/111/2 94/114/2
f 75/89/3 39/53/3 62/76/3 83/97/3
f 45/59/2 60/74/2 94/114/2 91/107/2
f 63/77/1 65/79/1 59/73/1 48/62/1
f 95/116/1 48/62/1 59/73/1 90/105/1
f 67/81/4 31/45/4 58/72/4 81/95/4
f 13/21/4 32/46/4 57/71/4 50/64/4
f 62/76/2 66/80/2 60/74/2 45/59/2
f 28/42/5 40/54/5 55/69/5 53/67/5
f 23/36/1 28/42/1 53/67/1 51/65/1
f 16/27/2 29/43/2 54/68/2 52/66/2
f 39/53/7 26/40/7 54/68/7 56/70/7
f 31/45/4 10/16/4 49/63/4 58/72/4
f 10/16/2 16/27/2 52/66/2 49/63/2
f 18/31/1 23/36/1 51/65/1 50/64/1
f 39/53/8 56/70/8 66/80/8 62/76/8
f 55/69/1 40/54/1 64/78/1 65/79/1
f 56/70/9 43/57/9 61/75/9 66/80/9
f 32/46/4 68/82/4 82/96/4 57/71/4
f 68/82/4 67/81/4 81/95/4 82/96/4
f 40/54/3 76/90/3 84/98/3 64/78/3
f 46/60/3 80/94/3 96/119/3 89/103/3
f 80/94/3 79/93/3 92/109/3 96/119/3
f 64/78/3 84/98/3 80/94/3 46/60/3
f 84/98/3 83/97/3 79/93/3 80/94/3
f 35/49/3 71/85/3 74/88/3 38/52/3
f 71/85/3 72/86/3 73/87/3 74/88/3
f 38/52/4 74/88/4 69/83/4 33/47/4
f 74/88/4 73/87/4 70/84/4 69/83/4
f 57/71/4 82/96/4 70/84/4 34/48/4
f 82/96/4 81/95/4 69/83/4 70/84/4
f 39/53/5 75/89/5 77/91/5 41/55/5
f 75/89/5 76/90/5 78/92/5 77/91/5
f 36/50/3 72/86/3 78/92/3 42/56/3
f 72/86/3 71/85/3 77/91/3 78/92/3
f 56/70/10 43/57/10 87/101/10 86/100/10
f 75/89/5 86/100/5 85/99/5 76/90/5
f 85/99/5 86/100/5 87/101/5 88/102/5
f 44/58/5 55/69/5 85/99/5 88/102/5
s 1
f 9/12/11 12/18/12 8/10/13 6/8/14
f 6/8/14 8/11/13 4/5/15 2/3/16
f 93/112/17 9/13/11 6/8/14 2/2/16 14/22/18 95/117/19 90/106/20 89/104/21 96/120/22 92/110/22 91/108/23 94/115/24
f 89/104/21 90/106/20 95/117/19 93/112/17 94/115/24 91/108/23 92/110/22 96/120/22
f 8/11/13 12/20/12 15/25/25 4/5/15
f 2/3/16 4/6/15 15/26/25 14/24/18
f 9/14/11 22/35/26 24/37/27 12/19/12
f 22/35/26 17/28/28 20/33/29 24/38/27
f 95/118/19 14/23/18 17/29/28 22/35/26 9/15/11 93/113/17
f 24/38/27 20/33/29 15/25/25 12/20/12
f 17/30/28 14/24/18 15/26/25 20/33/29
s 0
f 75/89/30 39/53/30 56/70/30 86/100/30
f 40/54/5 76/90/5 85/99/5 55/69/5
f 111/140/1 116/146/1 115/145/1 101/127/1
f 109/138/2 99/124/2 97/121/2 107/136/2
f 130/160/1 13/21/1 11/17/1 131/161/1
f 120/150/31 121/151/31 103/129/31 101/127/31
f 103/129/1 106/135/1 111/140/1 101/127/1
f 129/159/2 109/138/2 107/136/2 132/162/2
f 121/151/4 118/148/4 106/135/4 103/129/4
f 138/168/4 117/147/4 109/138/4 129/159/4
f 124/154/5 126/156/5 115/145/5 116/146/5
f 119/149/31 125/155/31 113/143/31 97/121/31
f 97/121/2 113/143/2 114/144/2 107/136/2
f 136/166/32 43/57/32 29/43/32 134/164/32
f 132/162/2 107/136/2 114/144/2 134/164/2
f 131/161/1 11/17/1 30/44/1 133/163/1
f 133/163/5 30/44/5 44/58/5 135/165/5
f 144/174/2 140/170/2 47/61/2 61/75/2
f 101/127/31 115/145/31 126/156/31 120/150/31
f 147/177/31 153/183/31 125/155/31 119/149/31
f 114/144/5 113/143/5 125/155/5 123/153/5
f 152/182/5 154/184/5 126/156/5 124/154/5
f 130/160/4 106/135/4 118/148/4 137/167/4
f 157/187/4 145/175/4 117/147/4 138/168/4
f 99/124/4 109/138/4 117/147/4 122/152/4
f 149/179/4 146/176/4 118/148/4 121/151/4
f 97/121/31 99/124/31 122/152/31 119/149/31
f 148/178/31 149/179/31 121/151/31 120/150/31
f 164/195/1 163/193/1 128/158/1 139/169/1
f 159/189/31 155/185/31 127/157/31 141/171/31
f 143/173/1 139/169/1 128/158/1 142/172/1
f 155/185/31 166/199/31 165/197/31 127/157/31
f 140/170/2 167/201/2 93/111/2 47/61/2
f 151/181/31 159/189/31 141/171/31 123/153/31
f 127/157/2 165/197/2 167/201/2 140/170/2
f 63/77/1 48/62/1 139/169/1 143/173/1
f 95/116/1 164/195/1 139/169/1 48/62/1
f 67/81/4 157/187/4 138/168/4 31/45/4
f 13/21/4 130/160/4 137/167/4 32/46/4
f 141/171/2 127/157/2 140/170/2 144/174/2
f 116/146/5 133/163/5 135/165/5 124/154/5
f 111/140/1 131/161/1 133/163/1 116/146/1
f 16/27/2 132/162/2 134/164/2 29/43/2
f 123/153/33 136/166/33 134/164/33 114/144/33
f 31/45/4 138/168/4 129/159/4 10/16/4
f 10/16/2 129/159/2 132/162/2 16/27/2
f 106/135/1 130/160/1 131/161/1 111/140/1
f 123/153/34 141/171/34 144/174/34 136/166/34
f 135/165/1 143/173/1 142/172/1 124/154/1
f 136/166/35 144/174/35 61/75/35 43/57/35
f 32/46/4 137/167/4 158/188/4 68/82/4
f 68/82/4 158/188/4 157/187/4 67/81/4
f 124/154/31 142/172/31 160/190/31 152/182/31
f 128/158/31 163/193/31 168/203/31 156/186/31
f 156/186/31 168/203/31 166/199/31 155/185/31
f 142/172/31 128/158/31 156/186/31 160/190/31
f 160/190/31 156/186/31 155/185/31 159/189/31
f 119/149/31 122/152/31 150/180/31 147/177/31
f 147/177/31 150/180/31 149/179/31 148/178/31
f 122/152/4 117/147/4 145/175/4 150/180/4
f 150/180/4 145/175/4 146/176/4 149/179/4
f 137/167/4 118/148/4 146/176/4 158/188/4
f 158/188/4 146/176/4 145/175/4 157/187/4
f 123/153/5 125/155/5 153/183/5 151/181/5
f 151/181/5 153/183/5 154/184/5 152/182/5
f 120/150/31 126/156/31 154/184/31 148/178/31
f 148/178/31 154/184/31 153/183/31 147/177/31
f 136/166/36 162/192/36 87/101/36 43/57/36
f 151/181/5 152/182/5 161/191/5 162/192/5
f 161/191/5 88/102/5 87/101/5 162/192/5
f 44/58/5 88/102/5 161/191/5 135/165/5
s 1
f 9/12/11 102/128/26 104/130/27 12/18/12
f 102/128/26 98/123/28 100/125/29 104/131/27
f 93/112/17 167/202/24 165/198/37 166/200/38 168/204/38 163/194/39 164/196/20 95/117/19 14/22/18 98/122/28 102/128/26 9/13/11
f 163/194/39 168/204/38 166/200/38 165/198/37 167/202/24 93/112/17 95/117/19 164/196/20
f 104/131/27 100/125/29 15/25/25 12/20/12
f 98/123/28 14/24/18 15/26/25 100/126/29
f 9/14/11 12/19/12 112/141/13 110/139/14
f 110/139/14 112/142/13 108/137/15 105/132/16
f 95/118/19 93/113/17 9/15/11 110/139/14 105/133/16 14/23/18
f 112/142/13 12/20/12 15/25/25 108/137/15
f 105/134/16 108/137/15 15/26/25 14/24/18
s 0
f 151/181/40 162/192/40 136/166/40 123/153/40
f 124/154/5 135/165/5 161/191/5 152/182/5
