# Blender 3.3.1
# www.blender.org
mtllib HorizontalWall1.mtl
o Cube.005
v 5.000000 0.500001 -5.000000
v 5.000000 -0.499999 -5.000000
v 5.000000 0.499999 5.000000
v 5.000000 -0.500001 5.000000
v 0.000000 -0.499999 -5.000000
v 0.000000 0.499999 5.000000
v 0.000000 -0.500001 5.000000
v 0.000000 0.500001 -5.000000
v 3.537625 -0.500001 5.000000
v 3.537625 0.500001 -5.000000
v 3.537625 -0.499999 -5.000000
v 3.537625 0.499999 5.000000
v 5.000000 0.844656 -5.000000
v 3.537625 0.844656 -5.000000
v 5.000000 0.844654 5.000000
v 3.537625 0.844654 5.000000
v 0.000000 0.844656 -5.000000
v 0.000000 0.844654 5.000000
v 0.000000 -0.500000 -3.551144
v 0.000000 -0.500000 3.551144
v 3.537625 -0.500000 -3.551144
v 3.537625 -0.500000 3.551144
v 5.000000 0.500000 -3.551144
v 5.000000 0.500000 3.551144
v 5.000000 -0.500000 3.551143
v 5.000000 -0.500000 -3.551145
v 3.537625 0.844655 -3.551144
v 3.537625 0.844654 3.551144
v 5.000000 0.844655 -3.551144
v 5.000000 0.844654 3.551144
v 0.000000 0.844655 -3.551144
v 0.000000 0.844654 3.551144
v 0.819582 -0.499999 -5.000000
v 0.819582 -0.500001 5.000000
v 0.819582 0.499999 5.000000
v 0.819582 0.500001 -5.000000
v 0.819582 0.844654 5.000000
v 0.819582 0.844656 -5.000000
v 0.819582 0.844654 3.551144
v 0.838856 0.844655 -3.551144
v 0.819582 -0.500000 3.551144
v 0.819582 -0.500000 -3.551144
v 0.000000 -0.500000 -0.661995
v 0.000000 -0.500000 0.661839
v 3.537625 -0.500000 -0.661995
v 3.537625 -0.500000 0.661839
v 5.000000 0.500000 -0.661994
v 5.000000 0.500000 0.661839
v 5.000000 -0.500000 0.661839
v 5.000000 -0.500000 -0.661995
v 3.537625 0.844655 -0.661994
v 3.537625 0.844655 0.661839
v 5.000000 0.844655 -0.661994
v 5.000000 0.844655 0.661839
v 0.819582 -0.500000 -0.661995
v 0.819582 -0.500000 0.661839
v 0.766530 0.844655 -0.606405
v 0.766530 0.844654 0.606327
v 0.000000 0.844655 -0.621795
v 0.000000 0.844654 0.621796
v 3.537625 3.719203 -0.661994
v 3.537625 3.719203 0.661840
v 5.000000 3.719203 -0.661994
v 5.000000 3.719203 0.661840
v 0.766530 3.719203 -0.606404
v 0.766530 3.719203 0.606328
v 0.000000 3.719203 0.621796
v 0.000000 3.719203 -0.621795
v -5.000000 0.500001 -5.000000
v -5.000000 -0.499999 -5.000000
v -5.000000 0.499999 5.000000
v -5.000000 -0.500001 5.000000
v -3.537625 -0.500001 5.000000
v -3.537625 0.500001 -5.000000
v -3.537625 -0.499999 -5.000000
v -3.537625 0.499999 5.000000
v -5.000000 0.844656 -5.000000
v -3.537625 0.844656 -5.000000
v -5.000000 0.844654 5.000000
v -3.537625 0.844654 5.000000
v -3.537625 -0.500000 -3.551144
v -3.537625 -0.500000 3.551144
v -5.000000 0.500000 -3.551144
v -5.000000 0.500000 3.551144
v -5.000000 -0.500000 3.551143
v -5.000000 -0.500000 -3.551145
v -3.537625 0.844655 -3.551144
v -3.537625 0.844654 3.551144
v -5.000000 0.844655 -3.551144
v -5.000000 0.844654 3.551144
v -0.819582 -0.499999 -5.000000
v -0.819582 -0.500001 5.000000
v -0.819582 0.499999 5.000000
v -0.819582 0.500001 -5.000000
v -0.819582 0.844654 5.000000
v -0.819582 0.844656 -5.000000
v -0.819582 0.844654 3.551144
v -0.838856 0.844655 -3.551144
v -0.819582 -0.500000 3.551144
v -0.819582 -0.500000 -3.551144
v -3.537625 -0.500000 -0.661995
v -3.537625 -0.500000 0.661839
v -5.000000 0.500000 -0.661994
v -5.000000 0.500000 0.661839
v -5.000000 -0.500000 0.661839
v -5.000000 -0.500000 -0.661995
v -3.537625 0.844655 -0.661994
v -3.537625 0.844655 0.661839
v -5.000000 0.844655 -0.661994
v -5.000000 0.844655 0.661839
v -0.819582 -0.500000 -0.661995
v -0.819582 -0.500000 0.661839
v -0.766530 0.844655 -0.606405
v -0.766530 0.844654 0.606327
v -3.537625 3.719203 -0.661994
v -3.537625 3.719203 0.661840
v -5.000000 3.719203 -0.661994
v -5.000000 3.719203 0.661840
v -0.766530 3.719203 -0.606404
v -0.766530 3.719203 0.606328
vn -0.0000 -0.0000 1.0000
vn -0.0000 -0.0000 -1.0000
vn 1.0000 -0.0000 -0.0000
vn -0.0000 -1.0000 -0.0000
vn -0.0000 1.0000 -0.0000
vn -0.0200 -0.0000 0.9998
vn 0.0201 -0.0000 -0.9998
vn -0.0201 -0.0000 -0.9998
vn 0.0202 -0.0000 0.9998
vn -1.0000 -0.0000 -0.0000
vn 0.0200 -0.0000 0.9998
vn -0.0202 -0.0000 0.9998
vt 0.000000 0.000000
vt 0.000000 0.000000
vt 0.000000 0.000000
vt 0.000000 0.000000
vt 0.000000 0.000000
vt 0.000000 0.000000
vt 0.000000 0.000000
vt 0.000000 0.000000
vt 0.000000 0.000000
vt 0.000000 0.000000
vt 0.000000 0.000000
vt 0.000000 0.000000
vt 0.000000 0.000000
vt 0.000000 0.000000
vt 0.000000 0.000000
vt 0.000000 0.000000
vt 0.000000 0.000000
vt 0.000000 0.000000
vt 0.000000 0.000000
vt 0.000000 0.000000
vt 0.000000 0.000000
vt 0.000000 0.000000
vt 0.000000 0.000000
vt 0.000000 0.000000
vt 0.000000 0.000000
vt 0.000000 0.000000
vt 0.000000 0.000000
vt 0.000000 0.000000
vt 0.000000 0.000000
vt 0.000000 0.000000
vt 0.000000 0.000000
vt 0.000000 0.000000
vt 0.000000 0.000000
vt 0.000000 0.000000
vt 0.000000 0.000000
vt 0.000000 0.000000
vt 0.000000 0.000000
vt 0.000000 0.000000
vt 0.000000 0.000000
vt 0.000000 0.000000
vt 0.000000 0.000000
vt 0.000000 0.000000
vt 0.000000 0.000000
vt 0.000000 0.000000
vt 0.000000 0.000000
vt 0.000000 0.000000
vt 0.000000 0.000000
vt 0.000000 0.000000
vt 0.000000 0.000000
vt 0.000000 0.000000
vt 0.000000 0.000000
vt 0.000000 0.000000
vt 0.000000 0.000000
vt 0.000000 0.000000
vt 0.000000 0.000000
vt 0.000000 0.000000
vt 0.000000 0.000000
vt 0.000000 0.000000
vt 0.000000 0.000000
vt 0.000000 0.000000
vt 0.000000 0.000000
vt 0.000000 0.000000
vt 0.000000 0.000000
vt 0.000000 0.000000
vt 0.000000 0.000000
vt 0.000000 0.000000
vt 0.000000 0.000000
vt 0.000000 0.000000
vt 0.000000 0.000000
vt 0.000000 0.000000
vt 0.000000 0.000000
vt 0.000000 0.000000
vt 0.000000 0.000000
vt 0.000000 0.000000
vt 0.000000 0.000000
vt 0.000000 0.000000
vt 0.000000 0.000000
vt 0.000000 0.000000
vt 0.000000 0.000000
vt 0.000000 0.000000
vt 0.000000 0.000000
vt 0.000000 0.000000
vt 0.000000 0.000000
vt 0.000000 0.000000
vt 0.000000 0.000000
vt 0.000000 0.000000
vt 0.000000 0.000000
vt 0.000000 0.000000
vt 0.000000 0.000000
vt 0.000000 0.000000
vt 0.000000 0.000000
vt 0.000000 0.000000
vt 0.000000 0.000000
vt 0.000000 0.000000
vt 0.000000 0.000000
vt 0.000000 0.000000
vt 0.000000 0.000000
vt 0.000000 0.000000
vt 0.000000 0.000000
vt 0.000000 0.000000
vt 0.000000 0.000000
vt 0.000000 0.000000
vt 0.000000 0.000000
vt 0.000000 0.000000
vt 0.000000 0.000000
vt 0.000000 0.000000
vt 0.000000 0.000000
vt 0.000000 0.000000
vt 0.000000 0.000000
vt 0.000000 0.000000
vt 0.000000 0.000000
vt 0.000000 0.000000
vt 0.000000 0.000000
vt 0.000000 0.000000
vt 0.000000 0.000000
vt 0.000000 0.000000
vt 0.000000 0.000000
vt 0.000000 0.000000
vt 0.000000 0.000000
vt 0.000000 0.000000
s 0
usemtl 
f 12/12/1 3/3/1 15/15/1 16/16/1
f 11/11/2 10/10/2 1/1/2 2/2/2
f 34/34/1 35/35/1 6/6/1 7/7/1
f 24/24/3 3/3/3 4/4/3 25/25/3
f 4/4/1 3/3/1 12/12/1 9/9/1
f 33/33/2 36/36/2 10/10/2 11/11/2
f 25/25/4 4/4/4 9/9/4 22/22/4
f 42/42/4 33/33/4 11/11/4 21/21/4
f 28/28/5 16/16/5 15/15/5 30/30/5
f 23/23/3 1/1/3 13/13/3 29/29/3
f 1/1/2 10/10/2 14/14/2 13/13/2
f 36/36/2 38/38/2 14/14/2 10/10/2
f 35/35/1 37/37/1 18/18/1 6/6/1
f 37/37/5 39/39/5 32/32/5 18/18/5
f 3/3/3 24/24/3 30/30/3 15/15/3
f 47/47/3 23/23/3 29/29/3 53/53/3
f 14/14/5 27/27/5 29/29/5 13/13/5
f 52/52/5 28/28/5 30/30/5 54/54/5
f 34/34/4 41/41/4 22/22/4 9/9/4
f 55/55/4 42/42/4 21/21/4 45/45/4
f 2/2/4 26/26/4 21/21/4 11/11/4
f 49/49/4 25/25/4 22/22/4 46/46/4
f 1/1/3 23/23/3 26/26/3 2/2/3
f 48/48/3 24/24/3 25/25/3 49/49/3
f 43/43/4 19/19/4 42/42/4 55/55/4
f 7/7/4 20/20/4 41/41/4 34/34/4
f 16/16/5 28/28/5 39/39/5 37/37/5
f 12/12/1 16/16/1 37/37/1 35/35/1
f 8/8/2 17/17/2 38/38/2 36/36/2
f 19/19/4 5/5/4 33/33/4 42/42/4
f 5/5/2 8/8/2 36/36/2 33/33/2
f 9/9/1 12/12/1 35/35/1 34/34/1
f 20/20/4 44/44/4 56/56/4 41/41/4
f 44/44/4 43/43/4 55/55/4 56/56/4
f 23/23/3 47/47/3 50/50/3 26/26/3
f 47/47/3 48/48/3 49/49/3 50/50/3
f 26/26/4 50/50/4 45/45/4 21/21/4
f 50/50/4 49/49/4 46/46/4 45/45/4
f 41/41/4 56/56/4 46/46/4 22/22/4
f 56/56/4 55/55/4 45/45/4 46/46/4
f 27/27/5 51/51/5 53/53/5 29/29/5
f 58/58/6 52/52/6 62/62/6 66/66/6
f 24/24/3 48/48/3 54/54/3 30/30/3
f 48/48/3 47/47/3 53/53/3 54/54/3
f 38/38/5 40/40/5 27/27/5 14/14/5
f 31/31/5 40/40/5 38/38/5 17/17/5
f 39/39/5 28/28/5 52/52/5 58/58/5
f 32/32/5 39/39/5 58/58/5 60/60/5
f 52/52/1 54/54/1 64/64/1 62/62/1
f 31/31/5 59/59/5 57/57/5 40/40/5
f 51/51/5 27/27/5 40/40/5 57/57/5
f 54/54/3 53/53/3 63/63/3 64/64/3
f 61/61/5 62/62/5 64/64/5 63/63/5
f 66/66/5 65/65/5 68/68/5 67/67/5
f 62/62/5 61/61/5 65/65/5 66/66/5
f 57/57/7 59/59/7 68/68/7 65/65/7
f 53/53/2 51/51/2 61/61/2 63/63/2
f 51/51/8 57/57/8 65/65/8 61/61/8
f 60/60/9 58/58/9 66/66/9 67/67/9
f 76/76/1 80/80/1 79/79/1 71/71/1
f 75/75/2 70/70/2 69/69/2 74/74/2
f 92/92/1 7/7/1 6/6/1 93/93/1
f 84/84/10 85/85/10 72/72/10 71/71/10
f 72/72/1 73/73/1 76/76/1 71/71/1
f 91/91/2 75/75/2 74/74/2 94/94/2
f 85/85/4 82/82/4 73/73/4 72/72/4
f 100/100/4 81/81/4 75/75/4 91/91/4
f 88/88/5 90/90/5 79/79/5 80/80/5
f 83/83/10 89/89/10 77/77/10 69/69/10
f 69/69/2 77/77/2 78/78/2 74/74/2
f 94/94/2 74/74/2 78/78/2 96/96/2
f 93/93/1 6/6/1 18/18/1 95/95/1
f 95/95/5 18/18/5 32/32/5 97/97/5
f 71/71/10 79/79/10 90/90/10 84/84/10
f 103/103/10 109/109/10 89/89/10 83/83/10
f 78/78/5 77/77/5 89/89/5 87/87/5
f 108/108/5 110/110/5 90/90/5 88/88/5
f 92/92/4 73/73/4 82/82/4 99/99/4
f 111/111/4 101/101/4 81/81/4 100/100/4
f 70/70/4 75/75/4 81/81/4 86/86/4
f 105/105/4 102/102/4 82/82/4 85/85/4
f 69/69/10 70/70/10 86/86/10 83/83/10
f 104/104/10 105/105/10 85/85/10 84/84/10
f 43/43/4 111/111/4 100/100/4 19/19/4
f 7/7/4 92/92/4 99/99/4 20/20/4
f 80/80/5 95/95/5 97/97/5 88/88/5
f 76/76/1 93/93/1 95/95/1 80/80/1
f 8/8/2 94/94/2 96/96/2 17/17/2
f 19/19/4 100/100/4 91/91/4 5/5/4
f 5/5/2 91/91/2 94/94/2 8/8/2
f 73/73/1 92/92/1 93/93/1 76/76/1
f 20/20/4 99/99/4 112/112/4 44/44/4
f 44/44/4 112/112/4 111/111/4 43/43/4
f 83/83/10 86/86/10 106/106/10 103/103/10
f 103/103/10 106/106/10 105/105/10 104/104/10
f 86/86/4 81/81/4 101/101/4 106/106/4
f 106/106/4 101/101/4 102/102/4 105/105/4
f 99/99/4 82/82/4 102/102/4 112/112/4
f 112/112/4 102/102/4 101/101/4 111/111/4
f 87/87/5 89/89/5 109/109/5 107/107/5
f 114/114/11 120/120/11 116/116/11 108/108/11
f 84/84/10 90/90/10 110/110/10 104/104/10
f 104/104/10 110/110/10 109/109/10 103/103/10
f 96/96/5 78/78/5 87/87/5 98/98/5
f 31/31/5 17/17/5 96/96/5 98/98/5
f 97/97/5 114/114/5 108/108/5 88/88/5
f 32/32/5 60/60/5 114/114/5 97/97/5
f 108/108/1 116/116/1 118/118/1 110/110/1
f 31/31/5 98/98/5 113/113/5 59/59/5
f 107/107/5 113/113/5 98/98/5 87/87/5
f 110/110/10 118/118/10 117/117/10 109/109/10
f 115/115/5 117/117/5 118/118/5 116/116/5
f 120/120/5 67/67/5 68/68/5 119/119/5
f 116/116/5 120/120/5 119/119/5 115/115/5
f 113/113/8 119/119/8 68/68/8 59/59/8
f 109/109/2 117/117/2 115/115/2 107/107/2
f 107/107/7 115/115/7 119/119/7 113/113/7
f 60/60/12 67/67/12 120/120/12 114/114/12
